<svg width="512" height="512" viewBox="0 0 512 512" fill="none" xmlns="http://www.w3.org/2000/svg">
<rect width="512" height="512" fill="#B3E5FC"/>
<path d="M343.5 143.5H168.5C154.75 143.5 143.5 154.75 143.5 168.5V343.5C143.5 357.25 154.75 368.5 168.5 368.5H343.5C357.25 368.5 368.5 357.25 368.5 343.5V168.5C368.5 154.75 357.25 143.5 343.5 143.5ZM268.5 318.5H206C199.125 318.5 193.5 312.875 193.5 306C193.5 299.125 199.125 293.5 206 293.5H268.5C275.375 293.5 281 299.125 281 306C281 312.875 275.375 318.5 268.5 318.5ZM306 268.5H206C199.125 268.5 193.5 262.875 193.5 256C193.5 249.125 199.125 243.5 206 243.5H306C312.875 243.5 318.5 249.125 318.5 256C318.5 262.875 312.875 268.5 306 268.5ZM306 218.5H206C199.125 218.5 193.5 212.875 193.5 206C193.5 199.125 199.125 193.5 206 193.5H306C312.875 193.5 318.5 199.125 318.5 206C318.5 212.875 312.875 218.5 306 218.5Z" fill="#0277BD"/>
</svg>
