<svg width="512" height="512" viewBox="0 0 512 512" fill="none" xmlns="http://www.w3.org/2000/svg">
<rect width="512" height="512" fill="#FFECB3"/>
<path d="M368.5 143.5H143.5C129.75 143.5 118.5 154.75 118.5 168.5V318.5C118.5 332.25 129.75 343.5 143.5 343.5H206V356C206 362.875 211.625 368.5 218.5 368.5H293.5C300.375 368.5 306 362.875 306 356V343.5H368.5C382.25 343.5 393.5 332.25 393.5 318.5V168.5C393.5 154.75 382.25 143.5 368.5 143.5ZM356 318.5H156C149.125 318.5 143.5 312.875 143.5 306V181C143.5 174.125 149.125 168.5 156 168.5H356C362.875 168.5 368.5 174.125 368.5 181V306C368.5 312.875 362.875 318.5 356 318.5ZM331 206H218.5C211.625 206 206 211.625 206 218.5C206 225.375 211.625 231 218.5 231H331C337.875 231 343.5 225.375 343.5 218.5C343.5 211.625 337.875 206 331 206ZM331 256H218.5C211.625 256 206 261.625 206 268.5C206 275.375 211.625 281 218.5 281H331C337.875 281 343.5 275.375 343.5 268.5C343.5 261.625 337.875 256 331 256ZM193.5 206H168.5V231H193.5V206ZM193.5 256H168.5V281H193.5V256Z" fill="#FF8F00"/>
</svg>
