<svg width="512" height="512" viewBox="0 0 512 512" fill="none" xmlns="http://www.w3.org/2000/svg">
<rect width="512" height="512" fill="#EDE7F6"/>
<path d="M256 206C269.807 206 281 194.807 281 181C281 167.193 269.807 156 256 156C242.193 156 231 167.193 231 181C231 194.807 242.193 206 256 206Z" fill="#4527A0"/>
<path d="M181 356C194.807 356 206 344.807 206 331C206 317.193 194.807 306 181 306C167.193 306 156 317.193 156 331C156 344.807 167.193 356 181 356Z" fill="#4527A0"/>
<path d="M181 281C194.807 281 206 269.807 206 256C206 242.193 194.807 231 181 231C167.193 231 156 242.193 156 256C156 269.807 167.193 281 181 281Z" fill="#4527A0"/>
<path d="M181 206C194.807 206 206 194.807 206 181C206 167.193 194.807 156 181 156C167.193 156 156 167.193 156 181C156 194.807 167.193 206 181 206Z" fill="#4527A0"/>
<path d="M331 206C344.807 206 356 194.807 356 181C356 167.193 344.807 156 331 156C317.193 156 306 167.193 306 181C306 194.807 317.193 206 331 206Z" fill="#4527A0"/>
<path d="M243.5 331.874V349.749C243.5 353.249 246.25 355.999 249.75 355.999H267.25C268.875 355.999 270.5 355.374 271.625 354.124L344.5 281.249L318 254.749L245.375 327.374C244.125 328.624 243.5 330.249 243.5 331.874Z" fill="#4527A0"/>
<path d="M256.375 281L281 256.375V256C281 242.25 269.75 231 256 231C242.25 231 231 242.25 231 256C231 269.75 242.25 281 256 281H256.375Z" fill="#4527A0"/>
<path d="M366.624 250.5L348.999 232.875C346.499 230.375 342.624 230.375 340.124 232.875L326.874 246.125L353.374 272.625L366.624 259.375C369.124 256.875 369.124 253 366.624 250.5Z" fill="#4527A0"/>
</svg>
