<svg width="512" height="512" viewBox="0 0 512 512" fill="none" xmlns="http://www.w3.org/2000/svg">
<rect width="512" height="512" fill="#B2DFDB"/>
<path d="M356 156H156C142.25 156 131.125 167.25 131.125 181L131 331C131 344.75 142.25 356 156 356H356C369.75 356 381 344.75 381 331V181C381 167.25 369.75 156 356 156ZM351 209.125L262.625 264.375C258.625 266.875 253.375 266.875 249.375 264.375L161 209.125C157.875 207.125 156 203.75 156 200.125C156 191.75 165.125 186.75 172.25 191.125L256 243.5L339.75 191.125C346.875 186.75 356 191.75 356 200.125C356 203.75 354.125 207.125 351 209.125Z" fill="#004D40"/>
</svg>
