<svg width="512" height="512" viewBox="0 0 512 512" fill="none" xmlns="http://www.w3.org/2000/svg">
<g clip-path="url(#clip0)">
<path d="M177.433 166.215L124.104 210.441C126.303 212.855 127.99 215.691 129.062 218.776C130.134 221.861 130.569 225.131 130.341 228.389C130.113 231.647 129.227 234.825 127.735 237.73C126.244 240.636 124.179 243.209 121.666 245.293C119.152 247.378 116.241 248.931 113.11 249.859C109.979 250.787 106.692 251.07 103.448 250.691C100.204 250.313 97.0707 249.28 94.2374 247.656C91.4041 246.032 88.9296 243.85 86.9636 241.242L39.1526 280.892L115.793 373.307L254.073 258.63L177.433 166.215Z" fill="#F2F2F2"/>
<path d="M481 300.114C481 354.737 448.528 373.809 408.472 373.809C368.415 373.809 335.943 354.737 335.943 300.114C335.943 245.492 408.472 176.004 408.472 176.004C408.472 176.004 481 245.492 481 300.114Z" fill="#F2F2F2"/>
<path d="M405.83 365.453L406.572 319.739L437.486 263.185L406.689 312.568L407.023 292.013L428.328 251.097L407.111 286.574V286.574L407.711 249.605L430.526 217.03L407.806 243.792L408.181 176.004L405.823 265.743L406.017 262.041L382.821 226.536L405.645 269.147L403.484 310.435L403.42 309.339L376.679 271.976L403.338 313.211L403.068 318.374L403.02 318.452L403.042 318.875L397.558 423.626H404.885L405.763 369.52L432.357 328.387L405.83 365.453Z" fill="#3F3D56"/>
<path d="M345.378 432.063C401.37 432.063 446.761 428.679 446.761 424.504C446.761 420.329 401.37 416.945 345.378 416.945C289.385 416.945 243.994 420.329 243.994 424.504C243.994 428.679 289.385 432.063 345.378 432.063Z" fill="#3F3D56"/>
<path d="M354.715 79H338.708V426.727H354.715V79Z" fill="#3F3D56"/>
<path d="M437.633 412.103C437.633 422.094 431.694 425.582 424.367 425.582C424.197 425.582 424.028 425.58 423.859 425.577C423.519 425.569 423.183 425.553 422.851 425.53C416.238 425.062 411.101 421.395 411.101 412.103C411.101 402.487 423.389 390.353 424.312 389.455L424.314 389.454C424.349 389.419 424.367 389.402 424.367 389.402C424.367 389.402 437.633 402.112 437.633 412.103Z" fill="#FF8F00"/>
<path d="M423.884 424.054L428.736 417.274L423.872 424.798L423.859 425.577C423.519 425.569 423.183 425.553 422.851 425.531L423.374 415.535L423.37 415.457L423.379 415.443L423.428 414.499L418.552 406.956L423.443 413.79L423.455 413.991L423.85 406.439L419.675 398.644L423.901 405.113L424.312 389.455L424.314 389.402V389.454L424.245 401.801L428.401 396.906L424.228 402.864L424.118 409.626L427.999 403.137L424.102 410.621L424.041 414.38L429.674 405.348L424.02 415.692L423.884 424.054Z" fill="#3F3D56"/>
<path d="M319.688 404.623L316.85 402.515C316.85 402.515 314.972 413.007 317.068 414.579C319.164 416.151 327.024 418.771 327.024 421.916C327.024 425.06 344.841 429.252 345.365 424.536C345.889 419.819 343.793 417.199 343.793 417.199C343.793 417.199 335.408 408.815 334.36 407.243C333.312 405.671 330.692 402.527 330.692 402.527L319.688 404.623Z" fill="#2F2E41"/>
<path d="M361.609 274.142C361.609 274.142 361.531 274.603 361.395 275.447C361.269 276.196 361.096 277.255 360.886 278.56C358.685 291.99 352.266 331.528 352.701 332.832C353.225 334.404 356.893 340.169 352.701 341.741C352.297 341.893 351.863 342.385 351.396 343.161C350.496 344.831 349.754 346.582 349.18 348.39C346.68 355.643 344.007 367.25 342.462 375.288C341.786 378.82 341.325 381.66 341.188 383.149C341.141 383.493 341.136 383.841 341.173 384.186C341.697 386.282 338.028 393.619 336.456 395.715C334.884 397.811 332.264 399.907 332.788 402.003C333.312 404.099 319.688 409.863 318.116 406.195C316.544 402.527 316.544 400.431 316.02 399.383C315.496 398.335 314.972 390.998 317.592 389.95C320.212 388.902 318.64 370.562 321.26 366.894C322.135 365.673 323.471 361.538 324.87 356.565C325.421 354.616 325.976 352.541 326.521 350.46C328.732 341.935 330.692 333.356 330.692 333.356L330.168 272.046L358.989 268.378L359.728 270.008L361.201 273.241L361.609 274.142Z" fill="#2F2E41"/>
<path d="M363.181 374.754C363.181 374.754 367.373 370.562 369.469 374.754C371.566 378.946 373.662 395.191 377.33 398.859C380.998 402.527 385.714 420.867 380.474 421.916C375.234 422.964 369.469 420.343 368.945 417.199C368.421 414.055 357.417 397.811 357.417 396.239C357.417 394.667 364.753 388.902 364.753 388.902L363.181 374.754Z" fill="#2F2E41"/>
<path d="M298.727 245.321C298.727 245.321 305.539 306.631 307.111 312.396C308.683 318.16 317.068 340.169 319.688 343.837C322.308 347.505 339.076 377.374 341.173 378.946C343.269 380.518 347.461 384.71 347.461 384.71C347.461 384.71 355.321 392.571 356.369 394.143C357.417 395.715 366.325 390.998 366.849 387.854C367.374 384.71 366.325 379.47 365.801 377.374C365.277 375.278 366.849 372.134 365.277 370.562C363.705 368.99 355.845 361.129 355.845 357.461C355.845 353.793 342.221 332.308 336.98 327.592C331.74 322.876 332.788 315.016 332.788 315.016V283.05L361.609 274.142C361.609 274.142 360.037 248.989 356.369 248.989C352.701 248.989 304.491 240.605 298.727 245.321Z" fill="#2F2E41"/>
<path d="M341.173 157.81C350.723 157.81 358.465 150.068 358.465 140.517C358.465 130.967 350.723 123.225 341.173 123.225C331.622 123.225 323.88 130.967 323.88 140.517C323.88 150.068 331.622 157.81 341.173 157.81Z" fill="#9F616A"/>
<path d="M335.408 154.142C335.408 154.142 333.312 162.002 330.692 164.098C328.072 166.194 337.504 175.102 337.504 175.102L355.321 176.15L358.465 166.194C358.465 166.194 352.701 154.666 354.273 147.329C355.845 139.993 335.408 154.142 335.408 154.142Z" fill="#9F616A"/>
<path d="M328.072 163.05C328.072 163.05 332.788 163.574 333.836 165.146C334.884 166.718 342.22 171.435 347.985 170.387C353.749 169.339 357.417 167.766 358.465 168.29C359.513 168.815 361.609 179.819 361.609 179.819L355.845 196.588L356.893 242.701L358.465 255.278C358.465 255.278 361.609 251.086 349.033 253.706C336.456 256.326 320.212 251.61 314.971 251.086C309.731 250.562 300.823 248.989 300.299 245.845C299.775 242.701 301.871 231.173 301.871 231.173L310.255 196.064L315.495 177.199L328.072 163.05Z" fill="#3F3D56"/>
<path d="M333.029 160.685C333.029 160.685 328.596 158.334 327.024 160.43C325.452 162.526 305.539 165.67 305.539 167.242C305.539 168.814 301.347 211.26 302.395 214.928C303.443 218.596 300.299 222.788 300.299 222.788L296.631 238.509C296.631 238.509 286.674 268.378 290.867 269.426C295.059 270.474 298.727 269.426 300.299 269.426C301.871 269.426 301.347 249.513 305.539 244.273C309.731 239.033 315.496 225.932 316.544 223.312C317.592 220.692 330.692 184.535 330.168 180.343C329.644 176.15 333.029 160.685 333.029 160.685Z" fill="#FFB300"/>
<path d="M354.797 163.05C354.797 163.05 358.989 163.05 359.513 164.098C360.037 165.146 365.277 171.959 367.374 173.531C369.47 175.103 376.806 181.915 376.806 183.487C376.806 185.059 361.609 196.588 361.609 196.588C361.609 196.588 355.321 227.505 358.465 237.985C361.609 248.465 366.325 273.618 364.229 275.19C362.133 276.762 357.417 277.286 357.417 275.19C357.417 273.094 354.273 250.562 351.653 245.845C349.033 241.129 341.173 211.26 344.317 202.876C347.461 194.491 354.797 163.05 354.797 163.05Z" fill="#FFB300"/>
<path d="M285.627 214.928C285.627 214.928 285.103 231.173 290.867 239.557C296.631 247.941 300.299 257.374 300.299 257.374C300.299 257.374 309.732 254.754 311.304 251.61C312.876 248.465 322.832 251.086 322.832 250.038C322.832 248.989 310.78 243.749 309.732 242.701C308.683 241.653 305.015 241.653 302.919 239.557C300.823 237.461 300.299 232.745 300.299 232.745L298.203 219.12L285.627 214.928Z" fill="#9F616A"/>
<path d="M329.262 129.855C327.932 129.734 326.56 129.601 325.384 128.967C322.75 127.546 322.051 123.5 324.057 121.278C324.61 120.713 325.228 120.216 325.899 119.797L329.882 117.086C331.644 115.887 333.447 114.668 335.502 114.103C337.36 113.592 339.323 113.644 341.247 113.764C344.982 113.996 348.739 114.475 352.252 115.765C355.764 117.054 359.041 119.211 361.168 122.289C364.541 127.169 364.587 133.75 362.73 139.384C360.872 145.017 357.344 149.923 353.867 154.729L352.063 145.927C351.903 145.143 351.695 144.284 351.043 143.82C349.422 142.667 347.44 145.035 345.451 145.019C344.173 145.009 343.1 143.958 342.615 142.776C342.131 141.593 342.099 140.283 341.987 139.01C341.75 136.313 340.807 132.561 338.254 131.074C335.874 129.689 331.937 130.098 329.262 129.855Z" fill="#2F2E41"/>
<path opacity="0.1" d="M330.232 274.565C330.232 274.565 332.002 325.758 333.05 327.33C334.098 328.902 333.05 274.404 333.05 274.404L330.232 274.565Z" fill="black"/>
<path d="M309.731 167.242H305.539C305.539 167.242 287.722 191.347 289.819 192.919C291.915 194.491 289.819 198.683 289.819 198.683L285.626 206.544C285.626 206.544 280.386 211.26 281.958 212.308C283.53 213.356 285.626 217.548 285.626 217.548C285.626 217.548 296.107 215.976 299.251 222.264L306.047 213.684L309.731 167.242Z" fill="#FFB300"/>
<path d="M357.417 212.308C357.417 212.308 345.889 212.832 332.788 204.448L319.688 198.684C319.688 198.684 308.159 180.867 307.111 184.011C306.063 187.155 308.683 193.444 308.683 193.444C308.683 193.444 292.873 200.76 292.462 201.727C292.051 202.695 301.347 200.256 301.347 200.256C301.347 200.256 299.775 210.212 308.683 210.736C317.592 211.26 320.212 209.164 320.212 209.164C320.212 209.164 357.941 240.605 364.229 230.649C370.518 220.693 357.417 212.308 357.417 212.308Z" fill="#9F616A"/>
<path d="M371.041 181.391L376.806 183.487V199.208L378.902 202.352C378.902 202.352 378.378 208.64 376.806 210.212C375.234 211.784 372.089 211.26 373.138 214.928C373.767 217.32 373.945 219.808 373.662 222.265C373.662 222.265 364.229 234.317 363.705 232.745C363.181 231.173 355.845 211.784 354.797 211.784C353.749 211.784 365.277 181.391 365.277 181.391H371.041Z" fill="#FFB300"/>
<path d="M302.133 260.78C302.133 260.78 296.715 255.54 299.424 255.278C302.133 255.016 311.566 249.776 313.138 252.396C314.71 255.016 302.133 260.78 302.133 260.78Z" fill="#2F2E41"/>
<path d="M219.412 414.722C228.832 399.005 233.794 381.02 233.767 362.696C233.767 306.703 188.376 261.312 132.384 261.312C76.391 261.312 31.0001 306.703 31.0001 362.696C30.9726 381.02 35.9352 399.005 45.3553 414.722H219.412Z" fill="#3F3D56"/>
<path d="M132.383 365.808C137.786 365.808 142.166 361.429 142.166 356.026C142.166 350.623 137.786 346.243 132.383 346.243C126.98 346.243 122.601 350.623 122.601 356.026C122.601 361.429 126.98 365.808 132.383 365.808Z" fill="#FF8F00"/>
<path d="M54.5671 376.925C57.2685 376.925 59.4584 374.735 59.4584 372.033C59.4584 369.332 57.2685 367.142 54.5671 367.142C51.8657 367.142 49.6758 369.332 49.6758 372.033C49.6758 374.735 51.8657 376.925 54.5671 376.925Z" fill="#FF8F00"/>
<path d="M57.437 334.56C60.1383 334.56 62.3283 332.37 62.3283 329.669C62.3283 326.967 60.1383 324.777 57.437 324.777C54.7356 324.777 52.5457 326.967 52.5457 329.669C52.5457 332.37 54.7356 334.56 57.437 334.56Z" fill="#FF8F00"/>
<path d="M81.717 299.725C84.4184 299.725 86.6083 297.535 86.6083 294.833C86.6083 292.132 84.4184 289.942 81.717 289.942C79.0156 289.942 76.8257 292.132 76.8257 294.833C76.8257 297.535 79.0156 299.725 81.717 299.725Z" fill="#FF8F00"/>
<path d="M120.47 282.37C123.171 282.37 125.361 280.18 125.361 277.478C125.361 274.777 123.171 272.587 120.47 272.587C117.769 272.587 115.579 274.777 115.579 277.478C115.579 280.18 117.769 282.37 120.47 282.37Z" fill="#FF8F00"/>
<path d="M162.627 287.453C165.328 287.453 167.518 285.263 167.518 282.562C167.518 279.86 165.328 277.67 162.627 277.67C159.925 277.67 157.735 279.86 157.735 282.562C157.735 285.263 159.925 287.453 162.627 287.453Z" fill="#FF8F00"/>
<path d="M196.144 313.522C198.845 313.522 201.035 311.332 201.035 308.631C201.035 305.93 198.845 303.74 196.144 303.74C193.442 303.74 191.252 305.93 191.252 308.631C191.252 311.332 193.442 313.522 196.144 313.522Z" fill="#FF8F00"/>
<path d="M211.446 353.131C214.148 353.131 216.338 350.941 216.338 348.239C216.338 345.538 214.148 343.348 211.446 343.348C208.745 343.348 206.555 345.538 206.555 348.239C206.555 350.941 208.745 353.131 211.446 353.131Z" fill="#FF8F00"/>
<path d="M204.164 394.963C206.865 394.963 209.055 392.773 209.055 390.072C209.055 387.371 206.865 385.181 204.164 385.181C201.462 385.181 199.272 387.371 199.272 390.072C199.272 392.773 201.462 394.963 204.164 394.963Z" fill="#FF8F00"/>
<path d="M132.383 356.026L182.63 317.785" stroke="#FF8F00" stroke-width="4" stroke-miterlimit="10"/>
<path d="M178.869 173.761C182.493 173.761 185.431 170.824 185.431 167.2C185.431 163.576 182.493 160.639 178.869 160.639C175.246 160.639 172.308 163.576 172.308 167.2C172.308 170.824 175.246 173.761 178.869 173.761Z" stroke="#3F3D56" stroke-width="2" stroke-miterlimit="10"/>
<path d="M216.221 250.243C219.845 250.243 222.783 247.306 222.783 243.682C222.783 240.058 219.845 237.121 216.221 237.121C212.598 237.121 209.66 240.058 209.66 243.682C209.66 247.306 212.598 250.243 216.221 250.243Z" fill="#3F3D56"/>
<path d="M105.803 245.279C116.308 245.279 124.824 236.763 124.824 226.257C124.824 215.752 116.308 207.236 105.803 207.236C95.2974 207.236 86.7812 215.752 86.7812 226.257C86.7812 236.763 95.2974 245.279 105.803 245.279Z" fill="#F2F2F2"/>
</g>
<defs>
<clipPath id="clip0">
<rect width="450" height="353.063" fill="white" transform="translate(31 79)"/>
</clipPath>
</defs>
</svg>
