<svg width="512" height="512" viewBox="0 0 512 512" fill="none" xmlns="http://www.w3.org/2000/svg">
<g clip-path="url(#clip0)">
<path d="M267.683 417.909H263.92L265.174 344.333H266.428L267.683 417.909Z" fill="#E6E6E6"/>
<path d="M270.651 297.944L276.714 288.574C274.916 283.607 272.839 278.745 270.494 274.012L266.573 277.179L269.677 272.381C266.719 266.557 264.391 262.888 264.391 262.888C264.391 262.888 252.231 282.051 248.168 302.339L255.949 314.364L247.335 307.407C247.029 309.77 246.871 312.15 246.863 314.534C246.863 338.562 254.71 358.041 264.391 358.041C274.071 358.041 281.919 338.562 281.919 314.534C281.919 307.085 280.234 299.291 277.909 292.082L270.651 297.944Z" fill="#E6E6E6"/>
<path d="M172.393 417.909H168.631L169.886 344.333H171.139L172.393 417.909Z" fill="#E6E6E6"/>
<path d="M176.772 297.944L182.835 288.574C181.037 283.607 178.96 278.745 176.615 274.012L172.694 277.179L175.798 272.381C172.84 266.557 170.512 262.888 170.512 262.888C170.512 262.888 158.352 282.051 154.289 302.339L162.07 314.364L153.456 307.407C153.15 309.77 152.992 312.15 152.984 314.534C152.984 338.562 160.831 358.041 170.512 358.041C180.193 358.041 188.04 338.562 188.04 314.534C188.04 307.085 186.355 299.291 184.03 292.082L176.772 297.944Z" fill="#E6E6E6"/>
<path d="M219.151 417.682H211.626L214.135 266.349H216.643L219.151 417.682Z" fill="#E6E6E6"/>
<path d="M225.693 170.935L238.195 151.614C234.487 141.372 230.205 131.348 225.369 121.589L217.285 128.119L223.686 118.226C217.585 106.218 212.785 98.6523 212.785 98.6523C212.785 98.6523 187.712 138.163 179.336 179.996L195.379 204.79L177.618 190.445C176.986 195.318 176.66 200.226 176.644 205.14C176.644 254.684 192.825 294.848 212.785 294.848C232.746 294.848 248.927 254.684 248.927 205.14C248.927 189.781 245.452 173.712 240.659 158.847L225.693 170.935Z" fill="#E6E6E6"/>
<path d="M182.619 160.396C201.782 160.396 217.317 144.861 217.317 125.698C217.317 106.535 201.782 91 182.619 91C163.456 91 147.921 106.535 147.921 125.698C147.921 144.861 163.456 160.396 182.619 160.396Z" fill="#E6E6E6"/>
<path d="M481 417.473H31V418.609H481V417.473Z" fill="#3F3D56"/>
<path d="M436.016 239.187C436.204 239.187 436.39 239.15 436.564 239.078C436.737 239.006 436.895 238.901 437.028 238.768C437.16 238.635 437.266 238.478 437.337 238.304C437.409 238.131 437.446 237.945 437.446 237.757V222.506C437.449 222.276 437.395 222.05 437.29 221.846C437.186 221.642 437.033 221.466 436.846 221.334C436.658 221.202 436.441 221.117 436.214 221.088C435.986 221.058 435.755 221.084 435.54 221.163V203.918C435.54 203.292 435.417 202.672 435.177 202.094C434.938 201.516 434.587 200.99 434.144 200.548C433.701 200.105 433.176 199.754 432.598 199.515C432.02 199.275 431.4 199.152 430.774 199.152H274.923C274.297 199.152 273.677 199.275 273.099 199.515C272.521 199.754 271.995 200.105 271.553 200.548C271.11 200.99 270.759 201.516 270.52 202.094C270.28 202.672 270.157 203.292 270.157 203.918V413.149C270.157 414.413 270.659 415.625 271.553 416.519C272.447 417.413 273.659 417.915 274.923 417.915H430.774C432.038 417.915 433.25 417.413 434.144 416.519C435.038 415.625 435.54 414.413 435.54 413.149V260.547C435.755 260.626 435.986 260.652 436.214 260.622C436.441 260.593 436.658 260.508 436.846 260.376C437.033 260.244 437.186 260.069 437.29 259.864C437.395 259.66 437.449 259.434 437.446 259.204V243.953C437.449 243.724 437.395 243.497 437.29 243.293C437.186 243.089 437.033 242.913 436.846 242.781C436.658 242.649 436.441 242.565 436.214 242.535C435.986 242.505 435.755 242.531 435.54 242.611V239.099C435.693 239.156 435.854 239.185 436.016 239.187Z" fill="#3F3D56"/>
<path d="M421.241 208.446C421.867 208.446 422.487 208.569 423.065 208.809C423.643 209.048 424.169 209.399 424.611 209.842C425.054 210.284 425.405 210.81 425.645 211.388C425.884 211.966 426.007 212.586 426.007 213.212V403.855C426.007 405.119 425.505 406.332 424.611 407.225C423.718 408.119 422.505 408.621 421.241 408.621H284.455C283.191 408.621 281.978 408.119 281.084 407.225C280.191 406.332 279.688 405.119 279.688 403.855V213.212C279.688 211.948 280.191 210.736 281.084 209.842C281.978 208.948 283.191 208.446 284.455 208.446H421.241Z" fill="white"/>
<path d="M352.848 205.824C353.901 205.824 354.755 204.971 354.755 203.918C354.755 202.865 353.901 202.011 352.848 202.011C351.795 202.011 350.942 202.865 350.942 203.918C350.942 204.971 351.795 205.824 352.848 205.824Z" fill="white"/>
<path d="M409.45 233.455H292.304V245.096H409.45V233.455Z" fill="#FF8F00"/>
<path d="M409.45 260.877H292.304V265.286H409.45V260.877Z" fill="#E6E6E6"/>
<path d="M409.45 274.335H292.304V278.745H409.45V274.335Z" fill="#E6E6E6"/>
<path d="M352.833 287.965H292.304V292.374H352.833V287.965Z" fill="#E6E6E6"/>
<path d="M409.45 301.835H292.304V306.245H409.45V301.835Z" fill="#E6E6E6"/>
<path d="M409.45 315.707H292.304V320.116H409.45V315.707Z" fill="#E6E6E6"/>
<path d="M350.806 329.578H292.304V333.987H350.806V329.578Z" fill="#E6E6E6"/>
<path d="M409.45 343.448H292.304V347.858H409.45V343.448Z" fill="#E6E6E6"/>
<path d="M409.45 357.319H292.304V361.729H409.45V357.319Z" fill="#E6E6E6"/>
<path d="M409.59 374.333H372.597V386.495H409.59V374.333Z" fill="#FF8F00"/>
<path d="M166.783 276.515H165.95V248.757C165.95 244.478 164.25 240.374 161.224 237.348C158.198 234.322 154.095 232.622 149.815 232.622H90.6884C88.5696 232.622 86.4715 233.039 84.5139 233.85C82.5564 234.661 80.7777 235.85 79.2794 237.348C77.7812 238.846 76.5927 240.625 75.7819 242.582C74.971 244.54 74.5537 246.638 74.5537 248.757V401.78C74.5537 403.899 74.971 405.997 75.7819 407.955C76.5927 409.912 77.7812 411.691 79.2794 413.189C80.7777 414.687 82.5564 415.876 84.5139 416.687C86.4715 417.498 88.5696 417.915 90.6884 417.915H149.815C154.095 417.915 158.198 416.215 161.224 413.189C164.25 410.163 165.95 406.059 165.95 401.78V296.238H166.783V276.515Z" fill="#3F3D56"/>
<path d="M162.339 247.65V401.42C162.339 404.616 161.069 407.681 158.809 409.941C156.55 412.201 153.485 413.47 150.289 413.47H91.0483C87.8525 413.47 84.7876 412.201 82.5278 409.941C80.2681 407.681 78.9985 404.616 78.9985 401.42V247.65C78.9985 244.77 80.1428 242.007 82.1796 239.97C84.2165 237.933 86.979 236.789 89.8595 236.789H98.2234C97.9076 237.579 97.7669 238.428 97.8111 239.278C97.8554 240.127 98.0835 240.957 98.4797 241.71C98.962 242.542 99.6451 243.239 100.466 243.738C101.288 244.237 102.221 244.522 103.181 244.567H137.648C138.608 244.522 139.541 244.237 140.363 243.738C141.184 243.239 141.867 242.541 142.349 241.71C142.746 240.957 142.974 240.127 143.018 239.278C143.062 238.428 142.921 237.579 142.605 236.789H151.478C154.358 236.789 157.121 237.933 159.158 239.97C161.194 242.007 162.339 244.77 162.339 247.65Z" fill="white"/>
<path d="M230.982 205.914C230.982 205.914 224.697 203.669 220.657 212.648C216.617 221.626 210.332 231.502 210.332 231.502L213.923 232.4C213.923 232.4 214.821 226.115 217.066 225.217L216.168 233.298C216.168 233.298 243.103 242.725 255.224 232.4L254.775 229.258C254.775 229.258 256.571 229.707 256.571 232.4L257.917 231.053C257.917 231.053 256.571 228.36 252.53 224.768C249.879 222.411 248.967 217.927 248.654 215.123C248.42 212.782 247.483 210.566 245.967 208.766C243.282 205.655 238.389 202.347 230.982 205.914Z" fill="#2F2E41"/>
<path d="M194.071 282.935L199.948 290.415L203.689 286.141L200.483 280.798L194.071 282.935Z" fill="#FBBEBE"/>
<path d="M191.934 397.805L189.797 409.025L195.14 411.696L198.88 409.025V397.805H191.934Z" fill="#FBBEBE"/>
<path d="M229.333 397.805L231.471 409.025L226.128 411.696L222.388 409.025V397.805H229.333Z" fill="#FBBEBE"/>
<path d="M207.428 296.827L199.948 350.254L189.263 398.874L202.086 400.477L212.237 355.063L225.059 316.595L223.457 362.543L220.786 400.477H230.402L237.348 349.186L245.028 311.052L244.828 296.827H207.428Z" fill="#2F2E41"/>
<path d="M193.537 407.956C193.537 407.956 190.866 404.751 189.263 406.354C187.66 407.956 183.92 414.368 183.92 414.368C183.92 414.368 175.371 419.176 182.317 420.245C189.263 421.313 191.4 420.245 191.4 419.711C191.4 419.176 192.468 417.573 192.468 417.573L195.14 418.108L198.88 417.039C198.88 417.039 200.483 407.195 198.88 407.576C197.277 407.956 194.071 409.559 193.537 407.956Z" fill="#2F2E41"/>
<path d="M227.731 407.956C227.731 407.956 230.402 404.751 232.005 406.354C233.608 407.956 237.348 414.368 237.348 414.368C237.348 414.368 245.896 419.176 238.951 420.245C232.005 421.313 229.868 420.245 229.868 419.711C229.868 419.176 228.8 417.573 228.8 417.573L226.128 418.108L222.388 417.039C222.388 417.039 220.785 407.195 222.388 407.576C223.991 407.956 227.197 409.559 227.731 407.956Z" fill="#2F2E41"/>
<path d="M232.806 233.515C238.708 233.515 243.492 228.731 243.492 222.829C243.492 216.928 238.708 212.144 232.806 212.144C226.905 212.144 222.121 216.928 222.121 222.829C222.121 228.731 226.905 233.515 232.806 233.515Z" fill="#FBBEBE"/>
<path d="M240.019 229.508C240.019 229.508 238.951 238.591 239.485 240.728C240.019 242.865 241.088 246.07 241.088 246.07L223.991 242.865C223.991 242.865 228.799 232.713 227.731 231.111C226.662 229.508 240.019 229.508 240.019 229.508Z" fill="#FBBEBE"/>
<path d="M241.622 242.33L223.991 238.59L213.839 300.567C218.415 299.317 223.264 299.504 227.731 301.101C235.21 303.772 245.362 301.101 245.362 301.101L243.225 242.865L241.622 242.33Z" fill="#FF8F00"/>
<path d="M227.582 233.682L221.32 236.987L213.306 238.59L204.757 258.893L205.826 273.318C205.826 273.318 196.743 289.881 195.674 298.964C195.674 298.964 196.743 312.855 214.374 312.321L226.128 279.73C226.128 279.73 230.937 255.153 226.128 248.207C226.128 248.207 229.57 235.184 227.582 233.682Z" fill="#2F2E41"/>
<path d="M216.511 238.591L214.781 238.295L213.305 238.591C213.305 238.591 209.565 239.125 205.291 242.865C201.017 246.605 186.591 258.359 185.523 261.564C184.454 264.77 184.988 270.113 186.591 273.319C188.194 276.524 191.4 280.799 191.4 280.799L193.003 284.538L202.085 281.867C202.085 281.867 196.208 270.647 196.743 265.839L207.428 257.29L216.511 238.591Z" fill="#2F2E41"/>
<path d="M239.428 236.097L247.499 246.07L251.773 251.413L246.431 269.578L243.759 285.073C243.759 285.073 250.171 309.649 244.828 317.129C244.828 317.129 241.622 320.869 240.554 316.595C239.485 312.321 239.485 292.018 239.485 292.018C239.485 292.018 235.211 265.304 237.348 258.359C239.485 251.413 237.233 237.344 239.428 236.097Z" fill="#2F2E41"/>
<path d="M246.965 313.389V318.732C246.965 318.732 245.896 336.363 251.239 334.226C256.582 332.089 252.842 318.732 252.842 318.732L252.307 312.855L246.965 313.389Z" fill="#FBBEBE"/>
<path d="M220.895 223.399C224.959 220.458 228.248 217.07 230.424 213.041C230.424 213.041 237.882 221.327 242.439 221.741C246.997 222.156 242.853 211.798 242.853 211.798L234.567 209.727L226.696 210.555L220.481 214.698L220.895 223.399Z" fill="#2F2E41"/>
<path d="M247.499 249.81L251.773 251.413L252.308 256.756L254.445 289.347L253.376 313.924L245.362 314.458L242.69 287.21L241.622 257.29L247.499 249.81Z" fill="#2F2E41"/>
<path d="M153.024 280.369H88.0806V286.823H153.024V280.369Z" fill="#FF8F00"/>
<path d="M153.024 295.572H88.0806V298.016H153.024V295.572Z" fill="#E6E6E6"/>
<path d="M153.024 303.033H88.0806V305.477H153.024V303.033Z" fill="#E6E6E6"/>
<path d="M121.637 310.588H88.0806V313.033H121.637V310.588Z" fill="#E6E6E6"/>
<path d="M153.024 318.278H88.0806V320.722H153.024V318.278Z" fill="#E6E6E6"/>
<path d="M153.024 325.968H88.0806V328.412H153.024V325.968Z" fill="#E6E6E6"/>
<path d="M120.513 333.657H88.0806V336.102H120.513V333.657Z" fill="#E6E6E6"/>
<path d="M153.024 341.347H88.0806V343.792H153.024V341.347Z" fill="#E6E6E6"/>
<path d="M153.024 349.037H88.0806V351.481H153.024V349.037Z" fill="#E6E6E6"/>
<path d="M153.101 358.469H132.593V365.211H153.101V358.469Z" fill="#FF8F00"/>
</g>
<defs>
<clipPath id="clip0">
<rect width="450" height="329.702" fill="white" transform="translate(31 91)"/>
</clipPath>
</defs>
</svg>
