<svg width="512" height="512" viewBox="0 0 512 512" fill="none" xmlns="http://www.w3.org/2000/svg">
<rect width="512" height="512" fill="#C8E6C9"/>
<path d="M252.375 330.875C212.625 329 181 296.25 181 256C181 214.625 214.625 181 256 181C296.25 181 329 212.625 330.875 252.375L304.625 244.5C299.5 222.375 279.625 206 256 206C228.375 206 206 228.375 206 256C206 279.625 222.375 299.5 244.5 304.625L252.375 330.875ZM381 256C381 259.75 380.875 263.5 380.5 267.25L355.875 259.875C356 258.625 356 257.25 356 256C356 200.75 311.25 156 256 156C200.75 156 156 200.75 156 256C156 311.25 200.75 356 256 356C257.25 356 258.625 356 259.875 355.875L267.25 380.5C263.5 380.875 259.75 381 256 381C187 381 131 325 131 256C131 187 187 131 256 131C325 131 381 187 381 256ZM333.875 309.25L362.25 299.75C368 297.875 367.875 289.625 362.125 287.875L267.125 259.375C262.375 258 257.875 262.375 259.375 267.125L287.875 362.125C289.625 368 297.875 368.125 299.75 362.25L309.25 333.875L358.125 382.75C360.625 385.25 364.5 385.25 367 382.75L382.875 366.875C385.375 364.375 385.375 360.5 382.875 358L333.875 309.25Z" fill="#1B5E20"/>
</svg>
