<svg width="512" height="512" viewBox="0 0 512 512" fill="none" xmlns="http://www.w3.org/2000/svg">
<rect width="512" height="512" fill="#F0F4C3"/>
<path d="M356 156H156C142.25 156 131.125 167.25 131.125 181L131 331C131 344.75 142.25 356 156 356H356C369.75 356 381 344.75 381 331V181C381 167.25 369.75 156 356 156ZM156 218.5H287.25V262.25H156V218.5ZM156 287.25H287.25V331H168.5C161.625 331 156 325.375 156 318.5V287.25ZM343.5 331H312.25V218.5H356V318.5C356 325.375 350.375 331 343.5 331Z" fill="#827717"/>
</svg>
